<svg id="visual" viewBox="0 0 900 600" width="900" height="600" xmlns="http://www.w3.org/2000/svg" xmlns:xlink="http://www.w3.org/1999/xlink" version="1.1"><rect x="0" y="0" width="900" height="600" fill="#009473"></rect><defs><linearGradient id="grad1_0" x1="33.3%" y1="0%" x2="100%" y2="100%"><stop offset="20%" stop-color="#00d39f" stop-opacity="1"></stop><stop offset="80%" stop-color="#00d39f" stop-opacity="1"></stop></linearGradient></defs><defs><linearGradient id="grad1_1" x1="33.3%" y1="0%" x2="100%" y2="100%"><stop offset="20%" stop-color="#00d39f" stop-opacity="1"></stop><stop offset="80%" stop-color="#00ca99" stop-opacity="1"></stop></linearGradient></defs><defs><linearGradient id="grad1_2" x1="33.3%" y1="0%" x2="100%" y2="100%"><stop offset="20%" stop-color="#00c192" stop-opacity="1"></stop><stop offset="80%" stop-color="#00ca99" stop-opacity="1"></stop></linearGradient></defs><defs><linearGradient id="grad1_3" x1="33.3%" y1="0%" x2="100%" y2="100%"><stop offset="20%" stop-color="#00c192" stop-opacity="1"></stop><stop offset="80%" stop-color="#00b88c" stop-opacity="1"></stop></linearGradient></defs><defs><linearGradient id="grad1_4" x1="33.3%" y1="0%" x2="100%" y2="100%"><stop offset="20%" stop-color="#00af86" stop-opacity="1"></stop><stop offset="80%" stop-color="#00b88c" stop-opacity="1"></stop></linearGradient></defs><defs><linearGradient id="grad1_5" x1="33.3%" y1="0%" x2="100%" y2="100%"><stop offset="20%" stop-color="#00af86" stop-opacity="1"></stop><stop offset="80%" stop-color="#00a680" stop-opacity="1"></stop></linearGradient></defs><defs><linearGradient id="grad1_6" x1="33.3%" y1="0%" x2="100%" y2="100%"><stop offset="20%" stop-color="#009d79" stop-opacity="1"></stop><stop offset="80%" stop-color="#00a680" stop-opacity="1"></stop></linearGradient></defs><defs><linearGradient id="grad1_7" x1="33.3%" y1="0%" x2="100%" y2="100%"><stop offset="20%" stop-color="#009d79" stop-opacity="1"></stop><stop offset="80%" stop-color="#009473" stop-opacity="1"></stop></linearGradient></defs><defs><linearGradient id="grad2_0" x1="0%" y1="0%" x2="66.7%" y2="100%"><stop offset="20%" stop-color="#00d39f" stop-opacity="1"></stop><stop offset="80%" stop-color="#00d39f" stop-opacity="1"></stop></linearGradient></defs><defs><linearGradient id="grad2_1" x1="0%" y1="0%" x2="66.7%" y2="100%"><stop offset="20%" stop-color="#00ca99" stop-opacity="1"></stop><stop offset="80%" stop-color="#00d39f" stop-opacity="1"></stop></linearGradient></defs><defs><linearGradient id="grad2_2" x1="0%" y1="0%" x2="66.7%" y2="100%"><stop offset="20%" stop-color="#00ca99" stop-opacity="1"></stop><stop offset="80%" stop-color="#00c192" stop-opacity="1"></stop></linearGradient></defs><defs><linearGradient id="grad2_3" x1="0%" y1="0%" x2="66.7%" y2="100%"><stop offset="20%" stop-color="#00b88c" stop-opacity="1"></stop><stop offset="80%" stop-color="#00c192" stop-opacity="1"></stop></linearGradient></defs><defs><linearGradient id="grad2_4" x1="0%" y1="0%" x2="66.7%" y2="100%"><stop offset="20%" stop-color="#00b88c" stop-opacity="1"></stop><stop offset="80%" stop-color="#00af86" stop-opacity="1"></stop></linearGradient></defs><defs><linearGradient id="grad2_5" x1="0%" y1="0%" x2="66.7%" y2="100%"><stop offset="20%" stop-color="#00a680" stop-opacity="1"></stop><stop offset="80%" stop-color="#00af86" stop-opacity="1"></stop></linearGradient></defs><defs><linearGradient id="grad2_6" x1="0%" y1="0%" x2="66.7%" y2="100%"><stop offset="20%" stop-color="#00a680" stop-opacity="1"></stop><stop offset="80%" stop-color="#009d79" stop-opacity="1"></stop></linearGradient></defs><defs><linearGradient id="grad2_7" x1="0%" y1="0%" x2="66.7%" y2="100%"><stop offset="20%" stop-color="#009473" stop-opacity="1"></stop><stop offset="80%" stop-color="#009d79" stop-opacity="1"></stop></linearGradient></defs><g transform="translate(900, 0)"><path d="M0 459.7C-48.6 393.4 -97.2 327.1 -171.5 297C-245.8 267 -345.8 273.3 -398.1 229.9C-450.4 186.4 -455.1 93.2 -459.7 0L0 0Z" fill="#009876"></path><path d="M0 402.2C-42.5 344.2 -85 286.2 -150.1 259.9C-215.1 233.6 -302.6 239.1 -348.4 201.1C-394.1 163.1 -398.2 81.5 -402.2 0L0 0Z" fill="#00a17c"></path><path d="M0 344.8C-36.4 295 -72.9 245.3 -128.6 222.8C-184.4 200.3 -259.4 205 -298.6 172.4C-337.8 139.8 -341.3 69.9 -344.8 0L0 0Z" fill="#00aa83"></path><path d="M0 287.3C-30.4 245.9 -60.7 204.4 -107.2 185.7C-153.6 166.9 -216.1 170.8 -248.8 143.7C-281.5 116.5 -284.4 58.2 -287.3 0L0 0Z" fill="#00b389"></path><path d="M0 229.9C-24.3 196.7 -48.6 163.5 -85.7 148.5C-122.9 133.5 -172.9 136.7 -199.1 114.9C-225.2 93.2 -227.5 46.6 -229.9 0L0 0Z" fill="#00bc8f"></path><path d="M0 172.4C-18.2 147.5 -36.4 122.6 -64.3 111.4C-92.2 100.1 -129.7 102.5 -149.3 86.2C-168.9 69.9 -170.7 34.9 -172.4 0L0 0Z" fill="#00c596"></path><path d="M0 114.9C-12.1 98.3 -24.3 81.8 -42.9 74.3C-61.5 66.8 -86.5 68.3 -99.5 57.5C-112.6 46.6 -113.8 23.3 -114.9 0L0 0Z" fill="#00ce9c"></path><path d="M0 57.5C-6.1 49.2 -12.1 40.9 -21.4 37.1C-30.7 33.4 -43.2 34.2 -49.8 28.7C-56.3 23.3 -56.9 11.6 -57.5 0L0 0Z" fill="#00d39f"></path></g><g transform="translate(0, 600)"><path d="M0 -459.7C62.5 -417.4 124.9 -375.1 197.5 -342.1C270.1 -309.1 352.7 -285.3 398.1 -229.9C443.5 -174.4 451.6 -87.2 459.7 0L0 0Z" fill="#009876"></path><path d="M0 -402.2C54.7 -365.2 109.3 -328.2 172.8 -299.3C236.3 -270.4 308.6 -249.7 348.4 -201.1C388.1 -152.6 395.2 -76.3 402.2 0L0 0Z" fill="#00a17c"></path><path d="M0 -344.8C46.8 -313.1 93.7 -281.3 148.1 -256.6C202.6 -231.8 264.6 -214 298.6 -172.4C332.6 -130.8 338.7 -65.4 344.8 0L0 0Z" fill="#00aa83"></path><path d="M0 -287.3C39 -260.9 78.1 -234.4 123.4 -213.8C168.8 -193.2 220.5 -178.3 248.8 -143.7C277.2 -109 282.3 -54.5 287.3 0L0 0Z" fill="#00b389"></path><path d="M0 -229.9C31.2 -208.7 62.5 -187.6 98.7 -171C135 -154.5 176.4 -142.7 199.1 -114.9C221.8 -87.2 225.8 -43.6 229.9 0L0 0Z" fill="#00bc8f"></path><path d="M0 -172.4C23.4 -156.5 46.8 -140.7 74.1 -128.3C101.3 -115.9 132.3 -107 149.3 -86.2C166.3 -65.4 169.4 -32.7 172.4 0L0 0Z" fill="#00c596"></path><path d="M0 -114.9C15.6 -104.4 31.2 -93.8 49.4 -85.5C67.5 -77.3 88.2 -71.3 99.5 -57.5C110.9 -43.6 112.9 -21.8 114.9 0L0 0Z" fill="#00ce9c"></path><path d="M0 -57.5C7.8 -52.2 15.6 -46.9 24.7 -42.8C33.8 -38.6 44.1 -35.7 49.8 -28.7C55.4 -21.8 56.5 -10.9 57.5 0L0 0Z" fill="#00d39f"></path></g></svg>