<svg id="visual" viewBox="0 0 900 675" width="900" height="675" xmlns="http://www.w3.org/2000/svg" xmlns:xlink="http://www.w3.org/1999/xlink" version="1.1"><rect x="0" y="0" width="900" height="675" fill="#f0f0f0"></rect><path d="M0 319L82 319L82 339L164 339L164 398L245 398L245 364L327 364L327 324L409 324L409 411L491 411L491 256L573 256L573 283L655 283L655 399L736 399L736 251L818 251L818 392L900 392L900 426L900 676L900 676L818 676L818 676L736 676L736 676L655 676L655 676L573 676L573 676L491 676L491 676L409 676L409 676L327 676L327 676L245 676L245 676L164 676L164 676L82 676L82 676L0 676Z" fill="#00a974"></path><path d="M0 408L82 408L82 490L164 490L164 410L245 410L245 475L327 475L327 407L409 407L409 387L491 387L491 336L573 336L573 358L655 358L655 328L736 328L736 350L818 350L818 493L900 493L900 481L900 676L900 676L818 676L818 676L736 676L736 676L655 676L655 676L573 676L573 676L491 676L491 676L409 676L409 676L327 676L327 676L245 676L245 676L164 676L164 676L82 676L82 676L0 676Z" fill="#009466"></path><path d="M0 534L82 534L82 447L164 447L164 513L245 513L245 532L327 532L327 537L409 537L409 412L491 412L491 456L573 456L573 476L655 476L655 479L736 479L736 525L818 525L818 440L900 440L900 442L900 676L900 676L818 676L818 676L736 676L736 676L655 676L655 676L573 676L573 676L491 676L491 676L409 676L409 676L327 676L327 676L245 676L245 676L164 676L164 676L82 676L82 676L0 676Z" fill="#008059"></path><path d="M0 530L82 530L82 569L164 569L164 542L245 542L245 548L327 548L327 522L409 522L409 598L491 598L491 574L573 574L573 490L655 490L655 588L736 588L736 492L818 492L818 560L900 560L900 518L900 676L900 676L818 676L818 676L736 676L736 676L655 676L655 676L573 676L573 676L491 676L491 676L409 676L409 676L327 676L327 676L245 676L245 676L164 676L164 676L82 676L82 676L0 676Z" fill="#006d4b"></path><path d="M0 610L82 610L82 544L164 544L164 608L245 608L245 611L327 611L327 572L409 572L409 583L491 583L491 644L573 644L573 634L655 634L655 592L736 592L736 625L818 625L818 631L900 631L900 544L900 676L900 676L818 676L818 676L736 676L736 676L655 676L655 676L573 676L573 676L491 676L491 676L409 676L409 676L327 676L327 676L245 676L245 676L164 676L164 676L82 676L82 676L0 676Z" fill="#005a3e"></path></svg>