<svg id="visual" viewBox="0 0 900 675" width="900" height="675" xmlns="http://www.w3.org/2000/svg" xmlns:xlink="http://www.w3.org/1999/xlink" version="1.1"><path d="M0 75L64 62L129 156L193 75L257 136L321 55L386 305L450 163L514 312L579 55L643 75L707 237L771 102L836 352L900 264L900 0L836 0L771 0L707 0L643 0L579 0L514 0L450 0L386 0L321 0L257 0L193 0L129 0L64 0L0 0Z" fill="#f0f0f0"></path><path d="M0 116L64 129L129 204L193 177L257 177L321 150L386 345L450 197L514 372L579 129L643 170L707 258L771 156L836 372L900 359L900 262L836 350L771 100L707 235L643 73L579 53L514 310L450 161L386 303L321 53L257 134L193 73L129 154L64 60L0 73Z" fill="#d4ece1"></path><path d="M0 237L64 237L129 291L193 217L257 298L321 177L386 467L450 278L514 393L579 237L643 190L707 359L771 278L836 393L900 413L900 357L836 370L771 154L707 256L643 168L579 127L514 370L450 195L386 343L321 148L257 175L193 175L129 202L64 127L0 114Z" fill="#b6e7d3"></path><path d="M0 318L64 271L129 433L193 291L257 433L321 305L386 487L450 379L514 453L579 352L643 278L707 420L771 379L836 473L900 467L900 411L836 391L771 276L707 357L643 188L579 235L514 391L450 276L386 465L321 175L257 296L193 215L129 289L64 235L0 235Z" fill="#97e2c5"></path><path d="M0 582L64 615L129 548L193 595L257 534L321 534L386 568L450 609L514 528L579 555L643 487L707 528L771 602L836 568L900 615L900 465L836 471L771 377L707 418L643 276L579 350L514 451L450 377L386 485L321 303L257 431L193 289L129 431L64 269L0 316Z" fill="#73ddb6"></path><path d="M0 676L64 676L129 676L193 676L257 676L321 676L386 676L450 676L514 676L579 676L643 676L707 676L771 676L836 676L900 676L900 613L836 566L771 600L707 526L643 485L579 553L514 526L450 607L386 566L321 532L257 532L193 593L129 546L64 613L0 580Z" fill="#44d7a8"></path></svg>