<svg id="visual" viewBox="0 0 900 675" width="900" height="675" xmlns="http://www.w3.org/2000/svg" xmlns:xlink="http://www.w3.org/1999/xlink" version="1.1"><path d="M0 210L21.5 193.2C43 176.3 86 142.7 128.8 132.7C171.7 122.7 214.3 136.3 257.2 145.3C300 154.3 343 158.7 385.8 149.7C428.7 140.7 471.3 118.3 514.2 106C557 93.7 600 91.3 642.8 107C685.7 122.7 728.3 156.3 771.2 168.7C814 181 857 172 878.5 167.5L900 163L900 0L878.5 0C857 0 814 0 771.2 0C728.3 0 685.7 0 642.8 0C600 0 557 0 514.2 0C471.3 0 428.7 0 385.8 0C343 0 300 0 257.2 0C214.3 0 171.7 0 128.8 0C86 0 43 0 21.5 0L0 0Z" fill="#81ffd7"></path><path d="M0 312L21.5 304C43 296 86 280 128.8 278.8C171.7 277.7 214.3 291.3 257.2 293.7C300 296 343 287 385.8 280.2C428.7 273.3 471.3 268.7 514.2 266.3C557 264 600 264 642.8 272C685.7 280 728.3 296 771.2 309.5C814 323 857 334 878.5 339.5L900 345L900 161L878.5 165.5C857 170 814 179 771.2 166.7C728.3 154.3 685.7 120.7 642.8 105C600 89.3 557 91.7 514.2 104C471.3 116.3 428.7 138.7 385.8 147.7C343 156.7 300 152.3 257.2 143.3C214.3 134.3 171.7 120.7 128.8 130.7C86 140.7 43 174.3 21.5 191.2L0 208Z" fill="#6fe1bc"></path><path d="M0 379L21.5 364.3C43 349.7 86 320.3 128.8 313.7C171.7 307 214.3 323 257.2 332C300 341 343 343 385.8 340.7C428.7 338.3 471.3 331.7 514.2 322.7C557 313.7 600 302.3 642.8 311.3C685.7 320.3 728.3 349.7 771.2 363.2C814 376.7 857 374.3 878.5 373.2L900 372L900 343L878.5 337.5C857 332 814 321 771.2 307.5C728.3 294 685.7 278 642.8 270C600 262 557 262 514.2 264.3C471.3 266.7 428.7 271.3 385.8 278.2C343 285 300 294 257.2 291.7C214.3 289.3 171.7 275.7 128.8 276.8C86 278 43 294 21.5 302L0 310Z" fill="#5dc3a2"></path><path d="M0 420L21.5 407.5C43 395 86 370 128.8 365.5C171.7 361 214.3 377 257.2 385C300 393 343 393 385.8 388.5C428.7 384 471.3 375 514.2 366C557 357 600 348 642.8 357C685.7 366 728.3 393 771.2 404.2C814 415.3 857 410.7 878.5 408.3L900 406L900 370L878.5 371.2C857 372.3 814 374.7 771.2 361.2C728.3 347.7 685.7 318.3 642.8 309.3C600 300.3 557 311.7 514.2 320.7C471.3 329.7 428.7 336.3 385.8 338.7C343 341 300 339 257.2 330C214.3 321 171.7 305 128.8 311.7C86 318.3 43 347.7 21.5 362.3L0 377Z" fill="#4ca689"></path><path d="M0 467L21.5 463.7C43 460.3 86 453.7 128.8 451.3C171.7 449 214.3 451 257.2 456.5C300 462 343 471 385.8 474.3C428.7 477.7 471.3 475.3 514.2 472C557 468.7 600 464.3 642.8 469C685.7 473.7 728.3 487.3 771.2 490.7C814 494 857 487 878.5 483.5L900 480L900 404L878.5 406.3C857 408.7 814 413.3 771.2 402.2C728.3 391 685.7 364 642.8 355C600 346 557 355 514.2 364C471.3 373 428.7 382 385.8 386.5C343 391 300 391 257.2 383C214.3 375 171.7 359 128.8 363.5C86 368 43 393 21.5 405.5L0 418Z" fill="#3b8a71"></path><path d="M0 521L21.5 516.5C43 512 86 503 128.8 501.8C171.7 500.7 214.3 507.3 257.2 510.7C300 514 343 514 385.8 516.3C428.7 518.7 471.3 523.3 514.2 522.2C557 521 600 514 642.8 517.3C685.7 520.7 728.3 534.3 771.2 540C814 545.7 857 543.3 878.5 542.2L900 541L900 478L878.5 481.5C857 485 814 492 771.2 488.7C728.3 485.3 685.7 471.7 642.8 467C600 462.3 557 466.7 514.2 470C471.3 473.3 428.7 475.7 385.8 472.3C343 469 300 460 257.2 454.5C214.3 449 171.7 447 128.8 449.3C86 451.7 43 458.3 21.5 461.7L0 465Z" fill="#2b6f59"></path><path d="M0 548L21.5 545.7C43 543.3 86 538.7 128.8 536.3C171.7 534 214.3 534 257.2 536.3C300 538.7 343 543.3 385.8 545.7C428.7 548 471.3 548 514.2 548C557 548 600 548 642.8 555.8C685.7 563.7 728.3 579.3 771.2 583.8C814 588.3 857 581.7 878.5 578.3L900 575L900 539L878.5 540.2C857 541.3 814 543.7 771.2 538C728.3 532.3 685.7 518.7 642.8 515.3C600 512 557 519 514.2 520.2C471.3 521.3 428.7 516.7 385.8 514.3C343 512 300 512 257.2 508.7C214.3 505.3 171.7 498.7 128.8 499.8C86 501 43 510 21.5 514.5L0 519Z" fill="#1b5543"></path><path d="M0 622L21.5 619.8C43 617.7 86 613.3 128.8 614.5C171.7 615.7 214.3 622.3 257.2 622.3C300 622.3 343 615.7 385.8 615.7C428.7 615.7 471.3 622.3 514.2 627.8C557 633.3 600 637.7 642.8 638.8C685.7 640 728.3 638 771.2 634.7C814 631.3 857 626.7 878.5 624.3L900 622L900 573L878.5 576.3C857 579.7 814 586.3 771.2 581.8C728.3 577.3 685.7 561.7 642.8 553.8C600 546 557 546 514.2 546C471.3 546 428.7 546 385.8 543.7C343 541.3 300 536.7 257.2 534.3C214.3 532 171.7 532 128.8 534.3C86 536.7 43 541.3 21.5 543.7L0 546Z" fill="#0b3c2e"></path><path d="M0 676L21.5 676C43 676 86 676 128.8 676C171.7 676 214.3 676 257.2 676C300 676 343 676 385.8 676C428.7 676 471.3 676 514.2 676C557 676 600 676 642.8 676C685.7 676 728.3 676 771.2 676C814 676 857 676 878.5 676L900 676L900 620L878.5 622.3C857 624.7 814 629.3 771.2 632.7C728.3 636 685.7 638 642.8 636.8C600 635.7 557 631.3 514.2 625.8C471.3 620.3 428.7 613.7 385.8 613.7C343 613.7 300 620.3 257.2 620.3C214.3 620.3 171.7 613.7 128.8 612.5C86 611.3 43 615.7 21.5 617.8L0 620Z" fill="#00251a"></path></svg>